<svg width="86" height="25" viewBox="0 0 86 25" fill="none" xmlns="http://www.w3.org/2000/svg">
<circle cx="12.5" cy="12.5" r="12.25" stroke="#FFD27B" stroke-width="0.5"/>
<path d="M13 4L8.03 6.31991V4.83463H11.212L11.6875 4.61265H8.03H7.785V6.43427L6 7.26748L6.385 7.44426L12.86 10.4994V19.1654H13.105V10.4994L19.615 7.44426L13.105 19.1654H12.86L6.385 7.44426L6 7.26748L7.785 10.5527V20H8.52V19.6981H8.03V10.9967L12.125 18.3307V20H13.875V18.3307L17.97 10.9967V19.6981H17.27V20H18.215V10.5527L20 7.26748L18.215 6.43427V4.58602H17.97L14.3125 4.61265L14.788 4.83463H17.97V6.31991L13 4Z" fill="#FFD27B"/>
<path d="M30.116 17V8.816H30.572L34.172 14.72H33.824L37.424 8.816H37.88V17H37.244V9.908L37.4 9.944L34.232 15.14H33.776L30.608 9.944L30.752 9.908V17H30.116ZM42.3681 17.12C41.8321 17.12 41.3481 16.992 40.9161 16.736C40.4921 16.48 40.1561 16.136 39.9081 15.704C39.6601 15.264 39.5361 14.768 39.5361 14.216C39.5361 13.672 39.6601 13.18 39.9081 12.74C40.1561 12.3 40.4921 11.952 40.9161 11.696C41.3401 11.432 41.8161 11.3 42.3441 11.3C42.7761 11.3 43.1601 11.384 43.4961 11.552C43.8401 11.712 44.1201 11.94 44.3361 12.236C44.5601 12.532 44.7041 12.884 44.7681 13.292V15.116C44.6961 15.524 44.5481 15.88 44.3241 16.184C44.1081 16.48 43.8321 16.712 43.4961 16.88C43.1681 17.04 42.7921 17.12 42.3681 17.12ZM42.4521 16.544C43.0921 16.544 43.6001 16.332 43.9761 15.908C44.3601 15.476 44.5521 14.912 44.5521 14.216C44.5521 13.744 44.4641 13.336 44.2881 12.992C44.1201 12.64 43.8761 12.368 43.5561 12.176C43.2361 11.976 42.8641 11.876 42.4401 11.876C42.0001 11.876 41.6081 11.976 41.2641 12.176C40.9281 12.376 40.6601 12.652 40.4601 13.004C40.2681 13.356 40.1721 13.756 40.1721 14.204C40.1721 14.66 40.2681 15.064 40.4601 15.416C40.6601 15.768 40.9321 16.044 41.2761 16.244C41.6201 16.444 42.0121 16.544 42.4521 16.544ZM44.5281 17V15.5L44.6601 14.132L44.5281 12.776V11.42H45.1401V17H44.5281ZM49.1231 17.12C48.6751 17.12 48.2751 17.016 47.9231 16.808C47.5711 16.6 47.2951 16.312 47.0951 15.944C46.9031 15.576 46.8071 15.152 46.8071 14.672V11.42H47.4191V14.648C47.4191 15.024 47.4871 15.356 47.6231 15.644C47.7671 15.924 47.9671 16.144 48.2231 16.304C48.4791 16.464 48.7791 16.544 49.1231 16.544C49.6351 16.544 50.0431 16.372 50.3471 16.028C50.6591 15.676 50.8151 15.216 50.8151 14.648V11.42H51.4271V14.672C51.4271 15.152 51.3271 15.576 51.1271 15.944C50.9351 16.312 50.6631 16.6 50.3111 16.808C49.9671 17.016 49.5711 17.12 49.1231 17.12ZM53.0914 14.252V13.676H56.7994V14.252H53.0914ZM60.6379 17.12C59.9979 17.12 59.4459 17 58.9819 16.76C58.5179 16.512 58.1179 16.172 57.7819 15.74L58.2259 15.308C58.5379 15.732 58.8899 16.044 59.2819 16.244C59.6819 16.436 60.1419 16.532 60.6619 16.532C61.2219 16.532 61.6779 16.4 62.0299 16.136C62.3819 15.872 62.5579 15.504 62.5579 15.032C62.5579 14.672 62.4819 14.38 62.3299 14.156C62.1779 13.932 61.9739 13.748 61.7179 13.604C61.4699 13.46 61.1939 13.332 60.8899 13.22C60.5939 13.108 60.2939 12.996 59.9899 12.884C59.6939 12.764 59.4219 12.62 59.1739 12.452C58.9259 12.276 58.7219 12.052 58.5619 11.78C58.4099 11.508 58.3339 11.164 58.3339 10.748C58.3339 10.332 58.4339 9.972 58.6339 9.668C58.8419 9.356 59.1219 9.116 59.4739 8.948C59.8339 8.78 60.2459 8.696 60.7099 8.696C61.2379 8.696 61.7099 8.8 62.1259 9.008C62.5419 9.208 62.8899 9.492 63.1699 9.86L62.7259 10.292C62.4619 9.964 62.1659 9.716 61.8379 9.548C61.5179 9.372 61.1379 9.284 60.6979 9.284C60.1859 9.284 59.7699 9.412 59.4499 9.668C59.1379 9.916 58.9819 10.264 58.9819 10.712C58.9819 11.048 59.0579 11.32 59.2099 11.528C59.3619 11.736 59.5619 11.912 59.8099 12.056C60.0659 12.192 60.3419 12.312 60.6379 12.416C60.9419 12.52 61.2419 12.632 61.5379 12.752C61.8339 12.872 62.1059 13.024 62.3539 13.208C62.6099 13.384 62.8139 13.612 62.9659 13.892C63.1179 14.172 63.1939 14.528 63.1939 14.96C63.1939 15.656 62.9619 16.192 62.4979 16.568C62.0419 16.936 61.4219 17.12 60.6379 17.12ZM65.6627 17V9.056H66.2747V17H65.6627ZM64.2227 11.96V11.42H67.7147V11.96H64.2227ZM71.2679 17.12C70.7239 17.12 70.2319 16.992 69.7919 16.736C69.3599 16.472 69.0159 16.12 68.7599 15.68C68.5039 15.232 68.3759 14.736 68.3759 14.192C68.3759 13.648 68.5039 13.16 68.7599 12.728C69.0159 12.288 69.3599 11.94 69.7919 11.684C70.2319 11.428 70.7239 11.3 71.2679 11.3C71.8039 11.3 72.2879 11.428 72.7199 11.684C73.1599 11.94 73.5079 12.288 73.7639 12.728C74.0199 13.16 74.1479 13.648 74.1479 14.192C74.1479 14.744 74.0199 15.24 73.7639 15.68C73.5079 16.12 73.1599 16.472 72.7199 16.736C72.2879 16.992 71.8039 17.12 71.2679 17.12ZM71.2679 16.544C71.6919 16.544 72.0719 16.44 72.4079 16.232C72.7519 16.024 73.0199 15.744 73.2119 15.392C73.4119 15.032 73.5119 14.628 73.5119 14.18C73.5119 13.74 73.4119 13.348 73.2119 13.004C73.0199 12.66 72.7519 12.388 72.4079 12.188C72.0719 11.98 71.6919 11.876 71.2679 11.876C70.8359 11.876 70.4479 11.98 70.1039 12.188C69.7679 12.388 69.4999 12.66 69.2999 13.004C69.0999 13.348 68.9999 13.744 68.9999 14.192C68.9999 14.64 69.0999 15.04 69.2999 15.392C69.4999 15.744 69.7679 16.024 70.1039 16.232C70.4479 16.44 70.8359 16.544 71.2679 16.544ZM75.5914 17V11.42H76.2034V17H75.5914ZM76.2034 13.664L75.9034 13.556C75.9034 12.844 76.0834 12.292 76.4434 11.9C76.8034 11.5 77.2754 11.3 77.8594 11.3C78.1314 11.3 78.3834 11.348 78.6154 11.444C78.8554 11.54 79.0754 11.696 79.2754 11.912L78.8674 12.344C78.7154 12.176 78.5514 12.056 78.3754 11.984C78.1994 11.912 77.9914 11.876 77.7514 11.876C77.2954 11.876 76.9234 12.032 76.6354 12.344C76.3474 12.648 76.2034 13.088 76.2034 13.664ZM82.636 17.12C82.084 17.12 81.584 16.992 81.136 16.736C80.696 16.48 80.348 16.132 80.092 15.692C79.836 15.252 79.708 14.756 79.708 14.204C79.708 13.652 79.832 13.16 80.08 12.728C80.328 12.288 80.668 11.94 81.1 11.684C81.54 11.428 82.028 11.3 82.564 11.3C83.076 11.3 83.524 11.416 83.908 11.648C84.3 11.872 84.604 12.184 84.82 12.584C85.044 12.984 85.156 13.444 85.156 13.964C85.156 14.012 85.152 14.076 85.144 14.156C85.136 14.228 85.124 14.32 85.108 14.432H80.14V13.904H84.76L84.556 14.072C84.572 13.632 84.5 13.248 84.34 12.92C84.18 12.584 83.948 12.324 83.644 12.14C83.34 11.956 82.976 11.864 82.552 11.864C82.112 11.864 81.724 11.964 81.388 12.164C81.052 12.356 80.788 12.624 80.596 12.968C80.412 13.312 80.32 13.712 80.32 14.168C80.32 14.648 80.416 15.068 80.608 15.428C80.808 15.78 81.084 16.056 81.436 16.256C81.788 16.448 82.2 16.544 82.672 16.544C83.032 16.544 83.364 16.48 83.668 16.352C83.98 16.216 84.24 16.016 84.448 15.752L84.856 16.148C84.6 16.452 84.276 16.692 83.884 16.868C83.5 17.036 83.084 17.12 82.636 17.12Z" fill="#FFD27B"/>
</svg>
